# xmcd
#
# Track frame offsets:
#	150
#	5819
#	27310
#	41078
#	58116
#	72947
#	88330
#	101982
#	118973
#	132157
#	149905
#	170516
#	190201
#	198923
#	215665
#	233120
#	258405
#
# Disc length: 3745 seconds
#
# Revision: 1
# Processed by: cddbd v1.5.1PL0 Copyright (c) Steve Scherf et al.
# Submitted via: audiograbber 1.83.01
#
DISCID=120e9f11
DTITLE=Blaze Foley (various artists) - In Tribute and Loving Memory - vol 1
DYEAR=1900
DGENRE=Country
TTITLE0=Jubal Clark - Blaze Ablaze
TTITLE1=Kimmie Rhodes - If I Could Only Fly
TTITLE2=Cody Hubach - Ooh Love
TTITLE3=Texana Dames - Picture Cards
TTITLE4=Tom Smith - Lovin' You
TTITLE5=Mandy Mercier - My Reasons Why
TTITLE6=Michael Reed Barker - Christian Lady
TTITLE7=Pat Mears - Darlin'
TTITLE8=Blaze Foley Hillbilly Band - Big Cheesburgers
TTITLE9=Calvin Russel - Should Have Been Home With You
TTITLE10=Rod Nunnelee - Rainbows and Ridges
TTITLE11=Timbuk3 - Small Town Hero
TTITLE12=Townes Van Zandt - Wouldn't That Be Nice
TTITLE13=Townes Van Zandt - Springtime in Uganda
TTITLE14=Jubal Clark - Blaze Foley's 113th Wet Dream
TTITLE15=Blaze Foley and Friends - Our Little Town
TTITLE16=Various Artist - Vol 2 Sampler
EXTD=
EXTT0=
EXTT1=
EXTT2=
EXTT3=
EXTT4=
EXTT5=
EXTT6=
EXTT7=
EXTT8=
EXTT9=
EXTT10=
EXTT11=
EXTT12=
EXTT13=
EXTT14=
EXTT15=
EXTT16=
PLAYORDER=
